<?xml version='1.0' encoding='iso-8859-1'?>
<!DOCTYPE svg PUBLIC '-//W3C//DTD SVG 1.1//EN' 'http://www.w3.org/Graphics/SVG/1.1/DTD/svg11.dtd'>
<svg version="1.1" xmlns="http://www.w3.org/2000/svg" viewBox="0 0 460 460" xmlns:xlink="http://www.w3.org/1999/xlink" enable-background="new 0 0 460 460">
  <path d="m459.641,139.111c-0.953-3.441-3.683-6.103-7.146-6.969l-23.141-5.787c-3.856-0.964-6.851-3.959-7.816-7.816l-2.781-11.12c-2.743-10.973-11.264-19.493-22.236-22.236l-11.116-2.779c-3.857-0.964-6.852-3.959-7.816-7.816l-2.778-11.114c-2.744-10.974-11.265-19.495-22.237-22.237l-11.115-2.778c-3.856-0.964-6.852-3.959-7.816-7.816l-5.783-23.135c-0.866-3.464-3.528-6.194-6.969-7.147-3.441-0.953-7.128,0.019-9.653,2.543-19.342,19.342-31.109,46.532-32.282,74.598-0.646,15.447 1.83,30.197 7.152,43.53-16.109-7.428-33.772-11.348-52.04-11.348-33.22,0-64.451,12.936-87.941,36.426-37.803,37.804-46.132,94.087-24.993,140.038-13.36-5.35-28.147-7.84-43.632-7.192-28.066,1.173-55.256,12.94-74.598,32.282-2.525,2.524-3.496,6.212-2.543,9.652 0.953,3.441 3.683,6.103 7.146,6.969l23.142,5.787c3.856,0.964 6.851,3.959 7.815,7.816l2.781,11.12c2.743,10.973 11.264,19.493 22.236,22.236l11.116,2.779c3.857,0.964 6.852,3.959 7.816,7.816l2.778,11.114c2.744,10.974 11.265,19.495 22.237,22.237l11.114,2.778c3.857,0.964 6.852,3.959 7.816,7.816l5.783,23.135c0.866,3.464 3.528,6.194 6.969,7.147 0.873,0.242 1.763,0.36 2.645,0.36 2.593,0 5.124-1.019 7.008-2.903 19.342-19.342 31.109-46.532 32.282-74.598 0.567-13.548-1.271-26.559-5.321-38.55 17.752,9.453 37.661,14.469 58.343,14.469 33.219,0 64.451-12.936 87.94-36.426 23.49-23.49 36.427-54.721 36.427-87.941 0-20.671-5.012-40.571-14.456-58.316 10.56,3.563 21.911,5.411 33.723,5.411 1.591,0 3.19-0.033 4.797-0.101 28.066-1.174 55.257-12.941 74.599-32.283 2.525-2.524 3.496-6.211 2.544-9.651zm-208.609-8.18c-8.119,0.877-16.137,2.696-23.826,5.497-26.19,9.539-44.866,28.966-52.565,54.631-7.817,25.191 1.999,52.08 23.342,63.936 0.04,0.022 0.079,0.044 0.12,0.065 14.696,7.839 25.342,3.14 31.684-2.183 2.679-2.248 5.037-4.962 7.169-7.897 7.036,5.438 8.094,10.104 4.162,17.512-8.118,14.538-27.598,21.349-45.415,15.819-20.824-6.247-36.578-21.456-44.362-42.826-8.454-23.212-6.429-49.944 5.082-71.448 1.199-1.328 2.438-2.633 3.718-3.913 20.381-20.382 47.154-30.573 73.926-30.573 5.675,0.001 11.35,0.464 16.965,1.38zm-120.085,86.156c0.877,8.118 2.696,16.136 5.496,23.824 9.539,26.19 28.966,44.866 54.632,52.565 25.19,7.818 52.079-1.999 63.936-23.342 0.022-0.04 0.044-0.079 0.065-0.12 7.839-14.697 3.139-25.342-2.183-31.685-2.198-2.62-4.84-4.934-7.7-7.028 0.189-0.352 0.379-0.704 0.566-1.051 0.529-0.984 1.053-1.959 1.595-2.952 0.188-0.35 0.762-1.416 3.145-1.988 4.168-1.001 10.428,0.393 14.645,3.245 9.462,7.32 14.903,19.197 14.951,32.643-1.241,25.462-20.343,48.359-47.602,57.052-22.854,6.411-47.696,3.752-69.156-7.219-1.08-0.994-2.148-2.007-3.196-3.054-24.702-24.702-34.43-58.791-29.194-90.89zm15.607,211.335l-.967-3.87c-2.743-10.973-11.264-19.494-22.237-22.238l-11.115-2.778c-3.856-0.964-6.852-3.959-7.816-7.816l-2.778-11.114c-2.744-10.973-11.264-19.494-22.237-22.238l-11.117-2.779c-3.856-0.964-6.851-3.959-7.816-7.816l-2.781-11.121c-2.743-10.971-11.263-19.491-22.234-22.234l-3.881-.971c33.769-21.719 80.162-19.537 107.338,7.639 27.177,27.176 29.361,73.566 7.641,107.336zm70.223-91.302c6.792-0.581 13.539-1.781 20.143-3.644 0.082-0.023 0.164-0.047 0.244-0.073 33.694-10.684 57.315-39.483 58.779-71.664 0.005-0.12 0.008-0.24 0.008-0.36 0-18.573-7.775-35.171-21.331-45.538-0.1-0.076-0.2-0.15-0.303-0.221-8.036-5.564-18.838-7.812-27.52-5.728-6.07,1.458-10.705,4.877-13.383,9.851-0.537,0.983-1.076,1.986-1.62,3-0.062,0.116-0.122,0.224-0.183,0.339-0.451-0.243-0.9-0.484-1.344-0.723-0.985-0.529-1.959-1.053-2.951-1.594-0.35-0.188-1.416-0.762-1.988-3.145-1-4.167 0.393-10.428 3.245-14.645 7.32-9.462 19.197-14.903 32.644-14.951 25.462,1.241 48.358,20.343 57.051,47.603 6.412,22.856 3.753,47.7-7.221,69.161-0.994,1.08-2.008,2.146-3.052,3.19-24.787,24.785-59.024,34.498-91.218,29.142zm120.385-85.575c-0.574-6.861-1.788-13.676-3.669-20.347-0.023-0.082-0.047-0.163-0.073-0.244-10.684-33.694-39.483-57.315-71.664-58.779-0.12-0.005-0.24-0.008-0.36-0.008-18.574,0-35.171,7.775-45.538,21.331-0.076,0.1-0.15,0.201-0.221,0.303-5.564,8.037-7.812,18.839-5.727,27.52 1.457,6.07 4.877,10.705 9.851,13.383 0.983,0.537 1.985,1.075 2.999,1.62 0.206,0.111 0.402,0.218 0.605,0.328-5.535,7.302-10.228,8.437-17.738,4.451-14.538-8.119-21.348-27.598-15.818-45.415 6.247-20.823 21.456-36.577 42.826-44.361 23.211-8.453 49.944-6.429 71.447,5.081 1.328,1.199 2.633,2.438 3.913,3.718 19.747,19.746 30.622,46.001 30.622,73.926-0.002,5.921-0.496,11.767-1.455,17.493zm40.938-90.289c-21.284-0.002-42.061-7.389-57.014-22.342-27.176-27.176-29.36-73.566-7.64-107.335l.967,3.871c2.744,10.974 11.265,19.495 22.237,22.237l11.115,2.778c3.856,0.964 6.852,3.959 7.816,7.816l2.778,11.114c2.744,10.973 11.264,19.494 22.237,22.238l11.117,2.779c3.856,0.964 6.851,3.959 7.816,7.816l2.781,11.121c2.743,10.971 11.263,19.491 22.235,22.235l3.88,.97c-15.189,9.768-32.927,14.704-50.325,14.702z"/>
</svg>
